<svg width="614" height="347" viewBox="0 0 614 347" fill="none" xmlns="http://www.w3.org/2000/svg">
<path d="M26.9901 309.317V195.125H57.9952V241.292H59.5567L93.9075 195.125H130.043L91.4538 245.976L130.935 309.317H93.9075L68.2559 266.495L57.9952 279.877V309.317H26.9901ZM131.393 195.125H169.981L196.526 259.804H197.864L224.408 195.125H262.997V309.317H232.661V243.3H231.769L206.34 308.425H188.05L162.621 242.854H161.729V309.317H131.393V195.125ZM269.84 309.317V195.125H352.148V220.105H300.845V239.731H347.91V264.711H300.845V284.337H351.925V309.317H269.84ZM356.551 220.105V195.125H455.812V220.105H421.461V309.317H390.902V220.105H356.551ZM490.634 195.125V309.317H459.629V195.125H490.634ZM497.477 309.317V195.125H528.481V241.292H530.043L564.394 195.125H600.53L561.94 245.976L601.422 309.317H564.394L538.743 266.495L528.481 279.877V309.317H497.477Z" fill="#fff"/>
<path d="M100.908 176.557L306.037 58.1401L320.969 83.9983L160.631 176.557H100.908Z" fill="#fff"/>
<path fill-rule="evenodd" clip-rule="evenodd" d="M291.059 84.1813L451.816 176.985H511.749L306.041 58.2341L291.059 84.1813Z" fill="#fff"/>
<path d="M0 176.669L306.038 0L320.969 25.8579L59.7238 176.669H0Z" fill="fff"/>
<path d="M553.384 177.48L291.06 26.0406L306.042 0.0938721L613.315 177.476H553.386L553.384 177.48Z" fill="#fff"/>
<path d="M83.9539 79.2691V140.527L119.775 130.435V79.2691H131.908V63.5905H70.665V79.2691H83.9539Z" fill="#fff"/>
</svg>
